<?xml version="1.0" encoding="UTF-8"?><svg id="Ebene_1" xmlns="http://www.w3.org/2000/svg" viewBox="0 0 866.28 865.21"><defs><style>.cls-1{fill:#fff;}</style></defs><rect class="cls-1" x="0" y="732.31" width="39.72" height="132.89"/><path class="cls-1" d="M67.94,498.62H0v221.69H39.71v-58.31h28.23c51.58,0,77.85-26.59,77.85-71.76v-19.86c0-45.17-26.27-71.76-77.85-71.76Zm32.04,91.62c0,19.22-10.25,28.51-32.04,28.51h-22.1v-77.21h22.1c21.78,0,32.04,9.61,32.04,28.83v19.86Z"/><path class="cls-1" d="M207.63,498.47l-57.99,221.85h47.09l10.57-43.28h60.87l10.57,43.28h46.77l-57.34-221.85h-60.55Zm8.01,135.61l22.43-99.7,21.78,99.7h-44.21Z"/><polygon class="cls-1" points="389.59 591.12 461.35 720.31 498.51 720.31 498.51 498.47 454.95 498.47 454.95 627.66 383.51 498.47 346.34 498.47 346.34 720.31 389.59 720.31 389.59 591.12"/><path class="cls-1" d="M678.56,583.1v-16.99c0-43.92-26.27-67.64-76.25-67.64h-69.2v221.85h45.49v-71.49h24.67l31.07,71.49h49.34l-39.4-79.19c22.74-9.94,34.28-29.49,34.28-58.03Zm-45.81-2.24c0,18.59-10.57,27.25-30.43,27.25h-23.71v-67.32h23.71c19.86,0,30.43,8.98,30.43,27.57v12.5Z"/><path class="cls-1" d="M783.32,494.78h-.32c-54.46,0-83.29,32.04-83.29,81.69v65.99c-.32,49.34,28.83,81.37,83.29,81.69h.32c54.14,0,82.86-32.04,82.86-81.69v-65.99c0-49.66-28.71-81.69-82.86-81.69Zm0,186.45h-.32c-24.99,0-37.8-17.3-37.8-41.65v-60.55c0-24.03,12.81-41.33,37.8-41.33h.32c21.74,0,34.26,13.44,36.93,33.07v77.16c-2.67,19.85-15.2,33.29-36.93,33.29Z"/><path class="cls-1" d="M104.35,791.55c11.29-2.56,17.62-10.84,17.62-24.25,0-17.62-9.49-26.05-28.46-26.05h-26.81v104.21h30.12c18.98,0,28.46-9.34,28.46-28.31,0-14.61-6.78-23.49-20.93-25.6Zm-33.43-46.54h22.59c16.57,0,24.25,7.08,24.25,22.59,0,14.31-7.83,22.29-23.04,22.29h-23.79v-44.88Zm25.9,96.68h-25.9v-48.19h25.45c17.32,0,24.85,8.58,24.85,23.34,0,16.72-7.68,24.85-24.4,24.85Z"/><path class="cls-1" d="M860.07,706.08c-3.46,5.26-7.61,9.12-12.44,13.01-6.09,5.18-13.11,8.25-21.06,11.55v134.57h39.72v-169.53c-1.83,3.67-3.9,7.13-6.21,10.39Z"/><path class="cls-1" d="M739.47,462.22c6.53-3.95,12.76-8.45,20.81-9.14,10.52-.91,19.75,2.16,28.27,8.08,7.9,5.49,15.87,7.78,23.82,7.73l.42,.03h7.48v16.49c8.14,2.71,15.43,5.75,21.83,10.26,6.9,4.57,12.66,9.49,17.25,16.31,2.55,3.49,4.83,7.23,6.81,11.2v-57.18h0l-.05-21.87-.04-21.85C530.22,326.36,432.06,0,432.06,0,432.06,0,335.85,326.36,0,422.26v46.26h0v17.19H45.67v-16.76h5.67c7.43-.12,14.68-2.76,21.67-7.52,9.01-6.14,18.37-9.88,29.4-8.24,7.9,1.18,14.89,4.64,21.5,8.86,14.44,9.2,28.81,8.9,43.28,.15,6.53-3.95,12.76-8.45,20.81-9.14,10.52-.91,19.75,2.16,28.27,8.08,7.9,5.49,15.87,7.78,23.82,7.73,6.21,.13,12.47-1.43,18.74-4.44,3.31-1.59,6.47-3.53,9.54-5.56,13.21-8.73,26.63-7.91,40.17-.98,3.66,1.87,7.09,4.21,10.7,6.21,13.88,7.68,27.36,5.97,40-2.65,9.01-6.14,18.37-9.88,29.4-8.24,7.9,1.18,14.89,4.64,21.5,8.86,14.44,9.2,28.81,8.9,43.28,.15,6.53-3.95,12.76-8.45,20.81-9.14,10.52-.91,19.75,2.16,28.27,8.08,7.9,5.49,15.73,7.79,23.67,7.73h0c6.21,.13,12.45-1.43,18.72-4.44,3.31-1.59,6.47-3.53,9.54-5.56,13.21-8.73,26.63-7.91,40.17-.98,3.66,1.88,7.09,4.21,10.7,6.21,13.88,7.68,27.36,5.97,40-2.65,9.01-6.14,18.37-9.88,29.4-8.24,7.9,1.18,14.89,4.64,21.5,8.86,14.44,9.2,28.81,8.9,43.28,.15Z"/><path class="cls-1" d="M225.73,739.59h-.15c-22.89,0-35.84,14.61-35.84,36.9v33.58c0,22.44,12.95,37.05,35.84,37.05h.15c22.74,0,35.69-14.61,35.69-37.05v-33.58c0-22.29-12.95-36.9-35.69-36.9Zm31.48,70.33c0,20.18-10.99,33.28-31.48,33.28h-.15c-20.63,0-31.63-13.1-31.63-33.28v-33.28c0-20.03,10.99-33.13,31.63-33.13h.15c20.48,0,31.48,13.1,31.48,33.13v33.28Z"/><path class="cls-1" d="M361.56,743.66h.15c13.86,0,22.89,6.02,26.2,19.43l3.46-1.36c-3.77-14.76-13.7-22.14-29.67-22.14h-.15c-22.59,0-34.19,14.46-34.19,37.05v33.43c0,22.59,11.6,37.05,34.19,37.05h.15c15.66,0,25.9-7.08,29.67-22.29l-3.46-1.21c-3.31,12.95-12.05,19.43-26.2,19.43h-.15c-20.18,0-30.12-13.25-30.12-32.98v-33.43c0-19.73,9.94-32.98,30.12-32.98Z"/><polygon class="cls-1" points="516.67 791.85 462.15 791.85 462.15 741.25 457.93 741.25 457.93 845.46 462.15 845.46 462.15 795.92 516.67 795.92 516.67 845.46 520.73 845.46 520.73 741.25 516.67 741.25 516.67 791.85"/><path class="cls-1" d="M650.54,812.63c0,20.33-10.84,30.57-27.11,30.57h-.15c-16.42,0-27.11-10.24-27.11-30.57v-71.38h-4.22v71.53c0,22.89,12.5,34.34,31.32,34.34h.15c18.82,0,31.32-11.45,31.32-34.34v-71.53h-4.22v71.38Z"/><polygon class="cls-1" points="762.73 817.9 731.25 741.25 725.83 741.25 725.83 845.46 729.9 845.46 729.9 751.79 729.75 746.67 760.77 822.72 764.54 822.72 795.56 746.67 795.41 751.94 796.66 845.46 800.73 845.46 799.48 741.25 794.05 741.25 762.73 817.9"/></svg>