<?xml version="1.0" encoding="UTF-8"?><svg id="Ebene_1" xmlns="http://www.w3.org/2000/svg" viewBox="0 0 168.87 18.28"><defs><style>.cls-1{fill:#fff;}</style></defs><path class="cls-1" d="M5.7,.31c4.35,0,6.56,2.12,6.56,5.72v1.58c0,3.6-2.21,5.72-6.56,5.72h-1.86v4.65H0V.31H5.7Zm2.7,5.72c0-1.53-.86-2.3-2.7-2.3h-1.86v6.15h1.86c1.84,0,2.7-.74,2.7-2.27v-1.58Z"/><path class="cls-1" d="M27.41,17.97h-3.94l-.89-3.45h-5.13l-.89,3.45h-3.97L17.48,.31h5.1l4.83,17.67ZM20.04,3.17l-1.89,7.94h3.73l-1.84-7.94Z"/><path class="cls-1" d="M38.33,.31h3.67V17.97h-3.13l-6.05-10.29v10.29h-3.65V.31h3.13l6.02,10.29V.31Z"/><path class="cls-1" d="M57.61,17.97h-4.16l-2.62-5.69h-2.08v5.69h-3.83V.31h5.83c4.21,0,6.43,1.89,6.43,5.39v1.35c0,2.27-.97,3.83-2.89,4.62l3.32,6.31ZM48.75,3.68v5.36h2c1.67,0,2.57-.69,2.57-2.17v-1c0-1.48-.89-2.2-2.57-2.2h-2Z"/><path class="cls-1" d="M66.01,0c4.56,0,7,2.55,7,6.51v5.26c0,3.96-2.43,6.51-7,6.51h-.03c-4.59-.03-7.05-2.58-7.02-6.51V6.51c0-3.96,2.43-6.51,7.02-6.51h.03Zm0,14.86c2.08,0,3.16-1.38,3.16-3.32V6.71c0-1.92-1.08-3.29-3.16-3.29h-.03c-2.11,0-3.19,1.38-3.19,3.29v4.83c0,1.94,1.08,3.32,3.19,3.32h.03Z"/><path class="cls-1" d="M91.83,13.17c0,3.22-1.7,4.8-5.1,4.8h-5.4V.31h4.81c3.4,0,5.1,1.43,5.1,4.42,0,2.27-1.13,3.68-3.16,4.11,2.54,.36,3.75,1.86,3.75,4.34ZM82.08,.94v7.61h4.27c2.73,0,4.13-1.35,4.13-3.78,0-2.63-1.38-3.83-4.35-3.83h-4.05Zm0,16.39h4.65c3,0,4.38-1.38,4.38-4.21,0-2.5-1.35-3.96-4.46-3.96h-4.56v8.17Z"/><path class="cls-1" d="M101.07,.03c4.08,0,6.4,2.48,6.4,6.25v5.69c0,3.8-2.32,6.28-6.4,6.28h-.03c-4.11,0-6.43-2.48-6.43-6.28V6.28C94.62,2.5,96.94,.03,101.04,.03h.03Zm0,17.56c3.67,0,5.64-2.22,5.64-5.64V6.31c0-3.4-1.97-5.62-5.64-5.62h-.03c-3.7,0-5.67,2.22-5.67,5.62v5.64c0,3.42,1.97,5.64,5.67,5.64h.03Z"/><path class="cls-1" d="M121.38,4.01c-.59-2.27-2.21-3.29-4.7-3.29h-.03c-3.62,0-5.4,2.25-5.4,5.59v5.67c0,3.34,1.78,5.59,5.4,5.59h.03c2.54,0,4.11-1.1,4.7-3.29l.62,.2c-.67,2.58-2.51,3.78-5.32,3.78h-.03c-4.05,0-6.13-2.45-6.13-6.28V6.31C110.53,2.48,112.61,.03,116.66,.03h.03c2.86,0,4.65,1.25,5.32,3.75l-.62,.23Z"/><path class="cls-1" d="M135.7,8.88V.31h.73V17.97h-.73V9.57h-9.78v8.4h-.76V.31h.76V8.88h9.78Z"/><path class="cls-1" d="M150.93,.31h.76V12.43c0,3.88-2.24,5.82-5.62,5.82h-.03c-3.38,0-5.62-1.94-5.62-5.82V.31h.76V12.41c0,3.45,1.92,5.18,4.86,5.18h.03c2.92,0,4.86-1.74,4.86-5.18V.31Z"/><path class="cls-1" d="M162.28,13.3L167.89,.31h.97V17.97h-.73V2.12l.03-.89-5.56,12.89h-.67l-5.56-12.89,.03,.87v15.88h-.73V.31h.97l5.64,12.99Z"/></svg>