<?xml version="1.0" encoding="utf-8"?>
<!-- Generator: Adobe Illustrator 26.5.0, SVG Export Plug-In . SVG Version: 6.00 Build 0)  -->
<svg version="1.1" id="Ebene_1" xmlns="http://www.w3.org/2000/svg" xmlns:xlink="http://www.w3.org/1999/xlink" x="0px" y="0px"
	 viewBox="0 0 196.7 18.3" style="enable-background:new 0 0 196.7 18.3;" xml:space="preserve">
<style type="text/css">
	.st0{fill:#2976BC;}
</style>
<path class="st0" d="M33.5,0.3C37.8,0.3,40,2.4,40,6v1.6c0,3.6-2.2,5.7-6.6,5.7h-1.9V18h-3.8V0.3H33.5z M36.2,6
	c0-1.5-0.9-2.3-2.7-2.3h-1.9v6.2h1.9c1.8,0,2.7-0.7,2.7-2.3C36.2,7.6,36.2,6,36.2,6z"/>
<path class="st0" d="M55.2,18h-3.9l-0.9-3.4h-5.1L44.3,18h-4l4.9-17.7h5.1L55.2,18L55.2,18z M47.8,3.2l-1.9,7.9h3.7
	C49.7,11.1,47.8,3.2,47.8,3.2z"/>
<path class="st0" d="M66.1,0.3h3.7V18h-3.1l-6-10.3V18H57V0.3h3.1l6,10.3L66.1,0.3L66.1,0.3z"/>
<path class="st0" d="M85.4,18h-4.2l-2.6-5.7h-2.1V18h-3.8V0.3h5.8c4.2,0,6.4,1.9,6.4,5.4V7c0,2.3-1,3.8-2.9,4.6L85.4,18L85.4,18z
	 M76.5,3.7V9h2c1.7,0,2.6-0.7,2.6-2.2v-1c0-1.5-0.9-2.2-2.6-2.2L76.5,3.7L76.5,3.7z"/>
<path class="st0" d="M93.8,0c4.6,0,7,2.5,7,6.5v5.3c0,4-2.4,6.5-7,6.5h0c-4.6,0-7.1-2.6-7-6.5V6.5C86.7,2.6,89.2,0,93.8,0L93.8,0z
	 M93.8,14.9c2.1,0,3.2-1.4,3.2-3.3V6.7c0-1.9-1.1-3.3-3.2-3.3h0c-2.1,0-3.2,1.4-3.2,3.3v4.8C90.6,13.5,91.7,14.9,93.8,14.9
	L93.8,14.9z"/>
<path class="st0" d="M119.6,13.2c0,3.2-1.7,4.8-5.1,4.8h-5.4V0.3h4.8c3.4,0,5.1,1.4,5.1,4.4c0,2.3-1.1,3.7-3.2,4.1
	C118.4,9.2,119.6,10.7,119.6,13.2L119.6,13.2z M109.9,0.9v7.6h4.3c2.7,0,4.1-1.3,4.1-3.8c0-2.6-1.4-3.8-4.3-3.8
	C113.9,0.9,109.9,0.9,109.9,0.9z M109.9,17.3h4.7c3,0,4.4-1.4,4.4-4.2c0-2.5-1.3-4-4.5-4h-4.6L109.9,17.3L109.9,17.3z"/>
<path class="st0" d="M128.9,0c4.1,0,6.4,2.5,6.4,6.2V12c0,3.8-2.3,6.3-6.4,6.3h0c-4.1,0-6.4-2.5-6.4-6.3V6.3
	C122.4,2.5,124.7,0,128.9,0L128.9,0z M128.9,17.6c3.7,0,5.6-2.2,5.6-5.6V6.3c0-3.4-2-5.6-5.6-5.6h0c-3.7,0-5.7,2.2-5.7,5.6v5.6
	C123.2,15.4,125.1,17.6,128.9,17.6L128.9,17.6z"/>
<path class="st0" d="M149.2,4c-0.6-2.3-2.2-3.3-4.7-3.3h0c-3.6,0-5.4,2.2-5.4,5.6V12c0,3.3,1.8,5.6,5.4,5.6h0c2.5,0,4.1-1.1,4.7-3.3
	l0.6,0.2c-0.7,2.6-2.5,3.8-5.3,3.8h0c-4.1,0-6.1-2.4-6.1-6.3V6.3c0-3.8,2.1-6.3,6.1-6.3h0c2.9,0,4.7,1.2,5.3,3.8L149.2,4L149.2,4z"
	/>
<path class="st0" d="M163.5,8.9V0.3h0.7V18h-0.7V9.6h-9.8V18h-0.8V0.3h0.8v8.6H163.5z"/>
<path class="st0" d="M178.7,0.3h0.8v12.1c0,3.9-2.2,5.8-5.6,5.8h0c-3.4,0-5.6-1.9-5.6-5.8V0.3h0.8v12.1c0,3.4,1.9,5.2,4.9,5.2h0
	c2.9,0,4.9-1.7,4.9-5.2V0.3z"/>
<path class="st0" d="M190.1,13.3l5.6-13h1V18h-0.7V2.1l0-0.9l-5.6,12.9h-0.7l-5.6-12.9l0,0.9V18h-0.7V0.3h1L190.1,13.3L190.1,13.3z"
	/>
<path class="st0" d="M17.8,11V9.8h0l0-0.4l0-0.4c-6.9-2-8.9-8.6-8.9-8.6S6.9,7,0,8.9v0.4v0.1h0v0.4v0.4V18h17.7"/>
</svg>
